PathFileType	4	(X/Y/Z)	output.trc
DataRate	CameraRate	NumFrames	NumMarkers	Units	OrigDataRate	OrigDataStartFrame	OrigNumFrames
100	100	11	23	m	100	3757	6010
Frame#	Time	C7			T8			EL			EM			US			RS			AA			Fore_Clus_1			Fore_Clus_2			Fore_Clus_3			Fore_Clus_4			Hum_Clus_1			Hum_Clus_2			Hum_Clus_3			Hum_Clus_4			Thor_Clus_1			Thor_Clus_2			Thor_Clus_3			Thor_Clus_4			IJ			PX			GH			Thor_Clus_5		
		X1	Y1	Z1	X2	Y2	Z2	X3	Y3	Z3	X4	Y4	Z4	X5	Y5	Z5	X6	Y6	Z6	X7	Y7	Z7	X8	Y8	Z8	X9	Y9	Z9	X10	Y10	Z10	X11	Y11	Z11	X12	Y12	Z12	X13	Y13	Z13	X14	Y14	Z14	X15	Y15	Z15	X16	Y16	Z16	X17	Y17	Z17	X18	Y18	Z18	X19	Y19	Z19	X20	Y20	Z20	X21	Y21	Z21	X22	Y22	Z22	X23	Y23	Z23
3756	37.560000	0.011451	1.497853	-0.117937	0.003370	1.251684	-0.191328	-0.238952	1.114618	-0.018868	-0.184627	1.091305	-0.051693	-0.090662	1.072385	0.177067	-0.069353	1.119792	0.163772	-0.150653	1.409502	-0.018783	nan	nan	nan	nan	nan	nan	nan	nan	nan	nan	nan	nan	-0.231077	1.216148	0.032855	-0.243341	1.228262	-0.024980	-0.239244	1.291805	-0.023741	-0.218543	1.289245	0.031345	0.116867	1.376186	0.040709	0.069766	1.320547	0.083329	0.074607	1.370243	0.054014	0.130696	1.328660	0.063634	0.052993	1.405092	-0.012125	0.089762	1.206029	0.028835	-0.112847	1.385754	-0.008824	0.063632	1.341491	0.073109
3757	37.570000	0.011492	1.497862	-0.117984	0.003395	1.251682	-0.191338	-0.238699	1.114548	-0.018777	-0.184376	1.091280	-0.051639	-0.090446	1.072390	0.177188	-0.069162	1.119804	0.163877	-0.150566	1.409515	-0.018751	nan	nan	nan	nan	nan	nan	nan	nan	nan	nan	nan	nan	-0.230899	1.216114	0.032947	-0.243192	1.228198	-0.024894	-0.239125	1.291754	-0.023652	-0.218409	1.289197	0.031402	0.116995	1.376216	0.040605	0.069899	1.320570	0.083275	0.074727	1.370254	0.053976	0.130816	1.328676	0.063567	0.053083	1.405117	-0.012176	0.089880	1.206062	0.028795	-0.112812	1.385789	-0.008822	0.063772	1.341520	0.073059
3758	37.580000	0.011535	1.497874	-0.118031	0.003419	1.251685	-0.191352	-0.238464	1.114493	-0.018669	-0.184147	1.091263	-0.051568	-0.090235	1.072410	0.177324	-0.068978	1.119830	0.163990	-0.150477	1.409531	-0.018720	nan	nan	nan	nan	nan	nan	nan	nan	nan	nan	nan	nan	-0.230708	1.216072	0.033059	-0.243071	1.228150	-0.024793	-0.239013	1.291709	-0.023562	-0.218279	1.289160	0.031476	0.117123	1.376239	0.040508	0.070032	1.320592	0.083215	0.074856	1.370273	0.053901	0.130933	1.328696	0.063495	0.053175	1.405144	-0.012230	0.089999	1.206096	0.028751	-0.112768	1.385825	-0.008813	0.063914	1.341542	0.073008
3759	37.590000	0.011578	1.497889	-0.118076	0.003440	1.251693	-0.191368	-0.238250	1.114451	-0.018541	-0.183943	1.091253	-0.051477	-0.090034	1.072449	0.177477	-0.068804	1.119872	0.164111	-0.150387	1.409550	-0.018685	nan	nan	nan	nan	nan	nan	nan	nan	nan	nan	nan	nan	-0.230487	1.216059	0.033211	-0.242903	1.228101	-0.024672	-0.238943	1.291659	-0.023476	-0.218149	1.289129	0.031569	0.117232	1.376263	0.040453	0.070182	1.320631	0.083152	0.075006	1.370285	0.053838	0.131045	1.328734	0.063433	0.053268	1.405172	-0.012283	0.090117	1.206130	0.028701	-0.112717	1.385863	-0.008797	0.064046	1.341569	0.072937
3760	37.600000	0.011627	1.497906	-0.118123	0.003466	1.251703	-0.191390	-0.238059	1.114425	-0.018395	-0.183764	1.091250	-0.051368	-0.089846	1.072510	0.177650	-0.068643	1.119934	0.164248	-0.150293	1.409571	-0.018656	-0.146211	1.092956	0.160385	-0.111836	1.091660	0.203116	-0.103558	1.117821	0.196683	-0.132618	1.134338	0.150090	-0.230297	1.216029	0.033359	-0.242779	1.228069	-0.024561	-0.238817	1.291630	-0.023369	-0.218030	1.289100	0.031671	0.117350	1.376291	0.040375	0.070323	1.320661	0.083099	0.075152	1.370304	0.053762	0.131176	1.328751	0.063306	0.053365	1.405200	-0.012340	0.090238	1.206162	0.028647	-0.112655	1.385901	-0.008776	0.064179	1.341600	0.072884
3761	37.610000	0.011678	1.497925	-0.118168	0.003488	1.251716	-0.191412	-0.237890	1.114412	-0.018228	-0.183611	1.091252	-0.051237	-0.089673	1.072594	0.177843	-0.068494	1.120017	0.164399	-0.150198	1.409596	-0.018623	-0.146177	1.093057	0.160570	-0.111817	1.091626	0.203264	-0.103407	1.117862	0.196859	-0.132486	1.134387	0.150293	-0.230114	1.216025	0.033514	-0.242647	1.228052	-0.024402	-0.238720	1.291609	-0.023247	-0.217885	1.289102	0.031793	0.117445	1.376311	0.040316	0.070492	1.320642	0.083031	0.075285	1.370335	0.053707	0.131351	1.328818	0.063012	0.053463	1.405227	-0.012396	0.090356	1.206193	0.028591	-0.112584	1.385939	-0.008754	0.064301	1.341628	0.072833
3762	37.620000	0.011736	1.497943	-0.118214	0.003511	1.251729	-0.191437	-0.237743	1.114413	-0.018040	-0.183483	1.091258	-0.051085	-0.089517	1.072702	0.178060	-0.068359	1.120122	0.164570	-0.150099	1.409623	-0.018594	-0.145818	1.092992	0.161015	-0.111187	1.092074	0.203747	-0.103268	1.117928	0.197034	-0.132356	1.134450	0.150464	-0.229950	1.216025	0.033683	-0.242530	1.228037	-0.024246	-0.238615	1.291590	-0.023116	-0.217740	1.289117	0.031921	0.117535	1.376343	0.040255	0.070745	1.320562	0.082913	0.075400	1.370358	0.053630	0.131420	1.328823	0.063196	0.053564	1.405252	-0.012453	0.090472	1.206221	0.028532	-0.112502	1.385975	-0.008730	0.064414	1.341667	0.072775
3763	37.630000	0.011799	1.497961	-0.118262	0.003532	1.251741	-0.191463	-0.237616	1.114425	-0.017828	-0.183379	1.091268	-0.050908	-0.089377	1.072836	0.178302	-0.068237	1.120249	0.164763	-0.149998	1.409655	-0.018567	-0.145551	1.093026	0.161394	-0.110764	1.092443	0.204119	-0.103137	1.118025	0.197176	-0.132124	1.134492	0.150722	-0.229794	1.216047	0.033850	-0.242407	1.228053	-0.024028	-0.238528	1.291592	-0.022964	-0.217567	1.289151	0.032058	0.117636	1.376357	0.040191	0.070854	1.320612	0.082859	0.075535	1.370390	0.053589	0.131558	1.328871	0.063079	0.053668	1.405276	-0.012512	0.090585	1.206246	0.028473	-0.112410	1.386009	-0.008708	0.064536	1.341698	0.072721
3764	37.640000	0.011865	1.497978	-0.118309	0.003545	1.251753	-0.191487	-0.237507	1.114446	-0.017590	-0.183295	1.091279	-0.050706	-0.089252	1.072994	0.178568	-0.068123	1.120398	0.164979	-0.149895	1.409694	-0.018536	-0.145453	1.093163	0.161639	-0.110698	1.092584	0.204324	-0.102970	1.118158	0.197450	-0.131999	1.134586	0.150930	-0.229681	1.216054	0.034010	-0.242311	1.228059	-0.023811	-0.238425	1.291598	-0.022800	-0.217414	1.289187	0.032203	0.117752	1.376377	0.040126	0.070973	1.320669	0.082825	0.075715	1.370519	0.053473	0.131700	1.328907	0.062992	0.053773	1.405299	-0.012570	0.090691	1.206269	0.028414	-0.112310	1.386043	-0.008690	0.064645	1.341737	0.072681
3765	37.650000	0.011939	1.497993	-0.118361	0.003557	1.251763	-0.191511	-0.237412	1.114476	-0.017326	-0.183231	1.091291	-0.050479	-0.089141	1.073176	0.178862	-0.068017	1.120568	0.165223	-0.149790	1.409739	-0.018510	-0.145361	1.093339	0.161874	-0.110656	1.092770	0.204575	-0.102871	1.118358	0.197736	-0.131904	1.134750	0.151134	-0.229567	1.216082	0.034179	-0.242227	1.228084	-0.023582	-0.238353	1.291605	-0.022619	-0.217265	1.289237	0.032360	0.117856	1.376394	0.040056	0.071102	1.320707	0.082774	0.075849	1.370543	0.053398	0.131825	1.328921	0.062895	0.053880	1.405319	-0.012630	0.090791	1.206289	0.028357	-0.112201	1.386074	-0.008676	0.064770	1.341763	0.072631
3766	37.660000	0.012014	1.498008	-0.118412	0.003554	1.251770	-0.191530	-0.237328	1.114512	-0.017031	-0.183182	1.091302	-0.050224	-0.089040	1.073379	0.179182	-0.067913	1.120755	0.165492	-0.149684	1.409795	-0.018476	-0.145261	1.093580	0.162086	-0.110622	1.093002	0.204867	-0.102855	1.118647	0.198037	-0.131858	1.135036	0.151363	-0.229426	1.216135	0.034403	-0.242149	1.228087	-0.023367	-0.238267	1.291577	-0.022405	-0.217133	1.289280	0.032541	0.117989	1.376413	0.039975	0.071222	1.320741	0.082727	0.075967	1.370568	0.053353	0.131948	1.328954	0.062818	0.053988	1.405338	-0.012690	0.090881	1.206306	0.028303	-0.112087	1.386105	-0.008668	0.064873	1.341799	0.072576
